<svg version="1.1" xmlns="http://www.w3.org/2000/svg" viewBox="0 0 1284.5 470.5" width="1284.5" height="470.5">
  <!-- svg-source:excalidraw -->
  
  <defs>
    <style class="style-fonts">
      @font-face {
        font-family: "Virgil";
        src: url("https://excalidraw.com/Virgil.woff2");
      }
      @font-face {
        font-family: "Cascadia";
        src: url("https://excalidraw.com/Cascadia.woff2");
      }
      @font-face {
        font-family: "Assistant";
        src: url("https://excalidraw.com/Assistant-Regular.woff2");
      }
    </style>
    
  </defs>
  <rect x="0" y="0" width="1284.5" height="470.5" fill="#ffffff"/><g stroke-linecap="round" transform="translate(269 20.5) rotate(0 130.5 63)"><path d="M31.5 0 C84.45 0.02, 132.57 -0.79, 229.5 0 C249.04 1.79, 263.11 6.98, 261 31.5 C262.23 45.61, 261.01 68.66, 261 94.5 C264.1 118.47, 248.3 126.47, 229.5 126 C160.42 125.87, 97.3 125.5, 31.5 126 C7.02 127.94, -3.26 113.99, 0 94.5 C2.53 74.21, 0.81 52.02, 0 31.5 C1.1 8.15, 8.67 0.69, 31.5 0" stroke="none" stroke-width="0" fill="#a5d8ff"/><path d="M31.5 0 C108.07 0.36, 188.52 -0.77, 229.5 0 M31.5 0 C101.84 -0.93, 171.79 -1.2, 229.5 0 M229.5 0 C250.86 -1.52, 260.29 10.2, 261 31.5 M229.5 0 C252.38 -0.57, 260.07 9.51, 261 31.5 M261 31.5 C259.99 50.84, 260.39 66.05, 261 94.5 M261 31.5 C260.27 47.5, 260.13 64.32, 261 94.5 M261 94.5 C260.79 117.08, 249.1 124.34, 229.5 126 M261 94.5 C261.47 113.75, 250.71 127.66, 229.5 126 M229.5 126 C174.11 126.58, 121.84 127.47, 31.5 126 M229.5 126 C180.3 125.31, 132.68 126.45, 31.5 126 M31.5 126 C11.46 127.95, 1.07 115.57, 0 94.5 M31.5 126 C9.61 126.82, -1.72 114.97, 0 94.5 M0 94.5 C-1.27 72.21, -0.3 49.36, 0 31.5 M0 94.5 C0.49 76.87, -0.22 59.53, 0 31.5 M0 31.5 C0.97 9.76, 10.02 1.47, 31.5 0 M0 31.5 C-1.19 10.84, 12.11 -0.3, 31.5 0" stroke="#1e1e1e" stroke-width="2" fill="none"/></g><g transform="translate(298.91666412353516 49) rotate(0 100.58333587646484 34.5)"><text x="100.58333587646484" y="18.400390625" font-family="Helvetica, Segoe UI Emoji" font-size="20px" fill="#1e1e1e" text-anchor="middle" style="white-space: pre;" direction="ltr" dominant-baseline="alphabetic">Linux</text><text x="100.58333587646484" y="41.400390625" font-family="Helvetica, Segoe UI Emoji" font-size="20px" fill="#1e1e1e" text-anchor="middle" style="white-space: pre;" direction="ltr" dominant-baseline="alphabetic"/><text x="100.58333587646484" y="64.400390625" font-family="Helvetica, Segoe UI Emoji" font-size="20px" fill="#1e1e1e" text-anchor="middle" style="white-space: pre;" direction="ltr" dominant-baseline="alphabetic">gocam service running</text></g><g stroke-linecap="round" transform="translate(1105.5 27.5) rotate(0 84.5 47)"><path d="M23.5 0 C62.99 2.91, 104.26 0.57, 145.5 0 C163.64 -1.95, 171.62 10.52, 169 23.5 C170.03 41.02, 165.83 55.26, 169 70.5 C169.44 88.16, 157.73 93.27, 145.5 94 C96.56 93.39, 49.12 95.34, 23.5 94 C10.21 90.44, -2.49 85.17, 0 70.5 C-0.1 59.63, 0.03 47.9, 0 23.5 C1.44 10.38, 5.72 -2.19, 23.5 0" stroke="none" stroke-width="0" fill="#ffec99"/><path d="M23.5 0 C49.96 0.62, 80.36 -2.19, 145.5 0 M23.5 0 C54.08 0.72, 83.66 -0.65, 145.5 0 M145.5 0 C161.08 1.45, 170.63 8.25, 169 23.5 M145.5 0 C162.27 -0.52, 166.78 6.5, 169 23.5 M169 23.5 C167.88 38.16, 167.88 56.31, 169 70.5 M169 23.5 C169.21 39.02, 168.72 52.41, 169 70.5 M169 70.5 C168.2 88.09, 161.87 95.94, 145.5 94 M169 70.5 C171.14 84.83, 160.33 95.79, 145.5 94 M145.5 94 C108.28 91.66, 74.55 94.65, 23.5 94 M145.5 94 C117.54 94.46, 89.93 95.34, 23.5 94 M23.5 94 C8.64 95.37, -0.67 84.75, 0 70.5 M23.5 94 C8.73 96.27, -1.05 85.53, 0 70.5 M0 70.5 C1.1 56.03, 0.4 45.6, 0 23.5 M0 70.5 C0.26 58.69, 0.04 48.6, 0 23.5 M0 23.5 C0.1 8.43, 7.71 0.77, 23.5 0 M0 23.5 C-0.73 9.72, 8.76 -2.08, 23.5 0" stroke="#1e1e1e" stroke-width="2" fill="none"/></g><g transform="translate(1128.875 63) rotate(0 61.125 11.5)"><text x="61.125" y="18.400390625" font-family="Helvetica, Segoe UI Emoji" font-size="20px" fill="#1e1e1e" text-anchor="middle" style="white-space: pre;" direction="ltr" dominant-baseline="alphabetic">Tapo Camera</text></g><g stroke-linecap="round"><g transform="translate(387 307.5) rotate(0 0.4353538870679472 -79.5)"><path d="M0 0 C0.15 -26.5, 0.73 -132.5, 0.87 -159" stroke="#f08c00" stroke-width="2.5" fill="none" stroke-dasharray="8 10"/></g><g transform="translate(387 307.5) rotate(0 0.4353538870679472 -79.5)"><path d="M9.29 -135.46 C6.29 -143.87, 3.28 -152.27, 0.87 -159" stroke="#f08c00" stroke-width="2.5" fill="none"/></g><g transform="translate(387 307.5) rotate(0 0.4353538870679472 -79.5)"><path d="M-7.81 -135.55 C-4.71 -143.93, -1.61 -152.3, 0.87 -159" stroke="#f08c00" stroke-width="2.5" fill="none"/></g></g><mask/><g transform="translate(401 235.5) rotate(0 100.04166412353516 11.5)"><text x="0" y="18.400390625" font-family="Helvetica, Segoe UI Emoji" font-size="20px" fill="#f08c00" text-anchor="start" style="white-space: pre;" direction="ltr" dominant-baseline="alphabetic">Please, start recording</text></g><g transform="translate(400 264.5) rotate(0 408.0249938964844 11.5)"><text x="0" y="18.400390625" font-family="Helvetica, Segoe UI Emoji" font-size="20px" fill="#1e1e1e" text-anchor="start" style="white-space: pre;" direction="ltr" dominant-baseline="alphabetic">$ curl http://192.168.30.66:9999/record/ -X POST -d '{"cameraId": "1", "duration":"5m"}' -m 1 </text></g><g stroke-linecap="round"><g transform="translate(531 111.5) rotate(0 284.5 -3)"><path d="M0 0 C94.83 -1, 474.17 -5, 569 -6" stroke="#f08c00" stroke-width="2.5" fill="none" stroke-dasharray="8 10"/></g><g transform="translate(531 111.5) rotate(0 284.5 -3)"><path d="M545.6 2.8 C554.68 -0.62, 563.76 -4.03, 569 -6" stroke="#f08c00" stroke-width="2.5" fill="none"/></g><g transform="translate(531 111.5) rotate(0 284.5 -3)"><path d="M545.42 -14.3 C554.57 -11.08, 563.72 -7.86, 569 -6" stroke="#f08c00" stroke-width="2.5" fill="none"/></g></g><mask/><g transform="translate(643 126.5) rotate(0 178.43333435058594 11.5)"><text x="0" y="18.400390625" font-family="Helvetica, Segoe UI Emoji" font-size="20px" fill="#1e1e1e" text-anchor="start" style="white-space: pre;" direction="ltr" dominant-baseline="alphabetic">Start ffmpeg process and start recording</text></g><g stroke-linecap="round"><g transform="translate(1102 42.5) rotate(0 -284.5 1.5)"><path d="M0 0 C-94.83 0.5, -474.17 2.5, -569 3 M0 0 C-94.83 0.5, -474.17 2.5, -569 3" stroke="#2f9e44" stroke-width="2" fill="none"/></g><g transform="translate(1102 42.5) rotate(0 -284.5 1.5)"><path d="M-545.55 -5.67 C-554.29 -2.44, -563.02 0.79, -569 3 M-545.55 -5.67 C-553.26 -2.82, -560.96 0.03, -569 3" stroke="#2f9e44" stroke-width="2" fill="none"/></g><g transform="translate(1102 42.5) rotate(0 -284.5 1.5)"><path d="M-545.46 11.43 C-554.23 8.29, -562.99 5.15, -569 3 M-545.46 11.43 C-553.2 8.66, -560.93 5.89, -569 3" stroke="#2f9e44" stroke-width="2" fill="none"/></g></g><mask/><g transform="translate(717.5666656494141 10) rotate(0 82.79166412353516 11.5)"><text x="0" y="18.400390625" font-family="Helvetica, Segoe UI Emoji" font-size="20px" fill="#1e1e1e" text-anchor="start" style="white-space: pre;" direction="ltr" dominant-baseline="alphabetic">Recording finished</text></g><g stroke-linecap="round" transform="translate(10 343.5) rotate(0 83 58.5)"><path d="M29.25 0 C64.47 0, 99.7 0, 136.75 0 C156.25 0, 166 9.75, 166 29.25 C166 41, 166 52.75, 166 87.75 C166 107.25, 156.25 117, 136.75 117 C95.23 117, 53.72 117, 29.25 117 C9.75 117, 0 107.25, 0 87.75 C0 72.65, 0 57.55, 0 29.25 C0 9.75, 9.75 0, 29.25 0" stroke="none" stroke-width="0" fill="#b2f2bb"/><path d="M29.25 0 C72.16 0, 115.07 0, 136.75 0 M29.25 0 C51.35 0, 73.45 0, 136.75 0 M136.75 0 C156.25 0, 166 9.75, 166 29.25 M136.75 0 C156.25 0, 166 9.75, 166 29.25 M166 29.25 C166 42.64, 166 56.03, 166 87.75 M166 29.25 C166 51.02, 166 72.79, 166 87.75 M166 87.75 C166 107.25, 156.25 117, 136.75 117 M166 87.75 C166 107.25, 156.25 117, 136.75 117 M136.75 117 C110.01 117, 83.28 117, 29.25 117 M136.75 117 C102.01 117, 67.26 117, 29.25 117 M29.25 117 C9.75 117, 0 107.25, 0 87.75 M29.25 117 C9.75 117, 0 107.25, 0 87.75 M0 87.75 C0 66.78, 0 45.81, 0 29.25 M0 87.75 C0 65.27, 0 42.79, 0 29.25 M0 29.25 C0 9.75, 9.75 0, 29.25 0 M0 29.25 C0 9.75, 9.75 0, 29.25 0" stroke="#1e1e1e" stroke-width="2" fill="none"/></g><g transform="translate(31.891666412353516 390.5) rotate(0 61.108333587646484 11.5)"><text x="61.108333587646484" y="18.400390625" font-family="Helvetica, Segoe UI Emoji" font-size="20px" fill="#1e1e1e" text-anchor="middle" style="white-space: pre;" direction="ltr" dominant-baseline="alphabetic">External HDD</text></g><g stroke-linecap="round"><g transform="translate(263 82.50000000000006) rotate(0 -82.64739770554422 129.99999999999997)"><path d="M0 0 C-26.17 3.33, -129.45 -23.33, -157 20 C-184.55 63.33, -163.91 220, -165.29 260" stroke="#2f9e44" stroke-width="2.5" fill="none" stroke-dasharray="8 10"/></g><g transform="translate(263 82.50000000000006) rotate(0 -82.64739770554422 129.99999999999997)"><path d="M-174.91 236.92 C-171.73 244.55, -168.56 252.17, -165.29 260" stroke="#2f9e44" stroke-width="2.5" fill="none"/></g><g transform="translate(263 82.50000000000006) rotate(0 -82.64739770554422 129.99999999999997)"><path d="M-157.83 236.14 C-160.29 244.02, -162.76 251.91, -165.29 260" stroke="#2f9e44" stroke-width="2.5" fill="none"/></g></g><mask/><g transform="translate(109 43.5) rotate(0 67.24166870117188 11.5)"><text x="0" y="18.400390625" font-family="Helvetica, Segoe UI Emoji" font-size="20px" fill="#1e1e1e" text-anchor="start" style="white-space: pre;" direction="ltr" dominant-baseline="alphabetic">Save recording</text></g></svg>